<svg width="115" height="47" viewBox="0 0 115 47" fill="none" xmlns="http://www.w3.org/2000/svg">
<path d="M8.37148 42.0052C8.37148 41.8986 8.35816 41.8253 8.3315 41.7854C8.30485 41.7454 8.25155 41.7187 8.17159 41.7054L7.69852 41.6521V41.5988H9.15772V41.6521L8.67798 41.7054C8.59802 41.7187 8.54472 41.7454 8.51807 41.7854C8.49141 41.8253 8.47809 41.8986 8.47809 42.0052V44.5638C8.47809 44.8437 8.45588 45.0769 8.41146 45.2634C8.37148 45.45 8.30707 45.6099 8.21823 45.7432C8.0983 45.9164 7.93394 46.0541 7.72517 46.1563C7.5164 46.254 7.28541 46.3029 7.03222 46.3029C6.82788 46.3029 6.62577 46.2696 6.42588 46.2029C6.22599 46.1363 6.05942 46.0452 5.92616 45.9297C5.78846 45.8098 5.69073 45.6566 5.63299 45.47C5.57524 45.2834 5.54637 45.0258 5.54637 44.6971V41.7054L5 41.6521V41.5988H6.6391V41.6521L6.05942 41.7054V44.917C6.05942 45.2412 6.08829 45.49 6.14604 45.6632C6.20823 45.8365 6.31039 45.9653 6.45254 46.0497C6.52805 46.0941 6.62133 46.1296 6.73238 46.1563C6.84343 46.1829 6.95892 46.1963 7.07886 46.1963C7.30096 46.1963 7.50529 46.1519 7.69185 46.063C7.87842 45.9742 8.02723 45.8476 8.13828 45.6832C8.22267 45.5588 8.28264 45.4145 8.31818 45.2501C8.35371 45.0813 8.37148 44.8637 8.37148 44.5971V42.0052Z" fill="#333333"/>
<path d="M14.1686 41.6854C14.2396 41.6899 14.2907 41.7032 14.3218 41.7254C14.3529 41.7476 14.3684 41.7809 14.3684 41.8253C14.3684 41.8653 14.3596 41.9075 14.3418 41.9519L12.9892 45.5633H12.9626L11.55 41.7054L12.1297 41.6521V41.5988H10.4639V41.6521L11.0103 41.7054L12.696 46.3029H12.816L14.4484 41.9519C14.4839 41.8498 14.5239 41.7831 14.5683 41.752C14.6172 41.7165 14.6972 41.6943 14.8082 41.6854L15.1813 41.6521V41.5988H13.7621V41.6521L14.1686 41.6854Z" fill="#333333"/>
<path d="M23.6818 46.3029C23.9572 46.3029 24.2038 46.2451 24.4214 46.1296C24.6435 46.0141 24.8168 45.8565 24.9411 45.6566C25.0655 45.4522 25.1277 45.2212 25.1277 44.9636C25.1277 44.7326 25.0766 44.5394 24.9744 44.3839C24.8767 44.224 24.7457 44.0908 24.5813 43.9842C24.4214 43.8775 24.2082 43.7643 23.9417 43.6443C23.6441 43.5066 23.4131 43.3889 23.2487 43.2912C23.0888 43.1935 22.9622 43.078 22.8689 42.9447C22.7801 42.8115 22.7357 42.6471 22.7357 42.4517C22.7357 42.1807 22.8178 41.9675 22.9822 41.812C23.1466 41.6521 23.3664 41.5721 23.6418 41.5721C24.0994 41.5721 24.4392 41.8009 24.6613 42.2584C24.7723 42.485 24.8634 42.7471 24.9345 43.0447L25.0011 43.0247L24.9345 41.5721H24.8478L24.6879 41.892C24.5058 41.7498 24.3348 41.6477 24.1749 41.5855C24.0194 41.5233 23.8506 41.4922 23.6685 41.4922C23.4064 41.4922 23.171 41.5477 22.9622 41.6588C22.7579 41.7654 22.5957 41.9164 22.4758 42.1118C22.3603 42.3029 22.3026 42.5205 22.3026 42.7648C22.3026 43.0047 22.3559 43.209 22.4625 43.3778C22.5735 43.5422 22.7112 43.6777 22.8756 43.7843C23.0399 43.8864 23.2443 43.9908 23.4886 44.0974C23.7862 44.2262 24.0172 44.3395 24.1815 44.4372C24.3459 44.535 24.4747 44.6527 24.568 44.7904C24.6657 44.9281 24.7146 45.0969 24.7146 45.2968C24.7146 45.5811 24.6235 45.8076 24.4414 45.9764C24.2637 46.1407 24.015 46.2229 23.6951 46.2229C23.322 46.2229 23.0222 46.0963 22.7956 45.8431C22.6846 45.7188 22.5935 45.5722 22.5225 45.4034C22.4558 45.2346 22.3892 44.9992 22.3226 44.6971L22.2626 44.7104L22.3492 46.3029H22.4358L22.5758 45.9364C22.7135 46.0519 22.88 46.1407 23.0755 46.2029C23.2709 46.2696 23.473 46.3029 23.6818 46.3029Z" fill="#333333"/>
<path d="M33.3151 41.5988V41.6521L32.9419 41.6854C32.822 41.6943 32.7398 41.7165 32.6954 41.752C32.651 41.7831 32.6132 41.8498 32.5821 41.9519L31.2562 46.3029H31.1496L29.9836 42.9847L28.9708 46.3029H28.8642L27.2451 41.7054L26.6987 41.6521V41.5988H28.3645V41.6521L27.7848 41.7054L29.0974 45.45H29.124L29.9236 42.8248L29.5305 41.7054L28.9841 41.6521V41.5988H30.6499V41.6521L30.0702 41.7054L31.3828 45.45H31.4094L32.4755 41.9519C32.4889 41.9031 32.4955 41.8609 32.4955 41.8253C32.4955 41.7765 32.4822 41.7432 32.4555 41.7254C32.4289 41.7032 32.3778 41.6899 32.3023 41.6854L31.8958 41.6521V41.5988H33.3151Z" fill="#333333"/>
<path d="M34.743 41.5988H36.3488V41.6521L35.8025 41.7054V46.0897L36.3488 46.143V46.1963H34.743V46.143L35.2894 46.0897V41.7054L34.743 41.6521V41.5988Z" fill="#333333"/>
<path d="M42.9405 41.7054V46.0897L43.5201 46.143V46.1963H41.881V46.143L42.4274 46.0897V42.0319H42.4008L40.795 46.3029H40.7283L38.936 42.0252H38.9093V45.7898C38.9093 45.8964 38.9227 45.9719 38.9493 46.0164C38.976 46.0563 39.0293 46.0808 39.1092 46.0897L39.5823 46.143V46.1963H38.1231V46.143L38.6028 46.0897C38.6828 46.0808 38.7361 46.0563 38.7628 46.0164C38.7894 45.9719 38.8027 45.8964 38.8027 45.7898V41.792C38.7716 41.7387 38.7317 41.7032 38.6828 41.6854C38.6384 41.6632 38.5717 41.6521 38.4829 41.6521H38.1764V41.5988H39.3158L40.9549 45.51H40.9815L42.4474 41.5988H43.5201V41.6521L42.9405 41.7054Z" fill="#333333"/>
<path d="M51.5563 41.5988V41.6521L51.1832 41.6854C51.0633 41.6943 50.9811 41.7165 50.9367 41.752C50.8923 41.7831 50.8545 41.8498 50.8234 41.9519L49.4975 46.3029H49.3909L48.2248 42.9847L47.2121 46.3029H47.1055L45.4863 41.7054L44.94 41.6521V41.5988H46.6057V41.6521L46.0261 41.7054L47.3387 45.45H47.3653L48.1649 42.8248L47.7718 41.7054L47.2254 41.6521V41.5988H48.8911V41.6521L48.3115 41.7054L49.6241 45.45H49.6507L50.7168 41.9519C50.7301 41.9031 50.7368 41.8609 50.7368 41.8253C50.7368 41.7765 50.7235 41.7432 50.6968 41.7254C50.6702 41.7032 50.6191 41.6899 50.5436 41.6854L50.1371 41.6521V41.5988H51.5563Z" fill="#333333"/>
<path d="M56.4158 44.797L56.2492 46.1963H52.9843V46.143L53.5307 46.0897V41.7054L52.9843 41.6521V41.5988H56.2558L56.3491 42.8514L56.2825 42.8581L55.9094 41.9253C55.8694 41.8231 55.825 41.7565 55.7761 41.7254C55.7317 41.6943 55.6562 41.6788 55.5496 41.6788H54.0437V43.7243H55.0299C55.1365 43.7243 55.212 43.7065 55.2564 43.671C55.3008 43.6355 55.3319 43.5666 55.3497 43.4644L55.4629 42.9247H55.5429V44.6305H55.4629L55.3497 44.0908C55.3319 43.9886 55.3008 43.9197 55.2564 43.8842C55.212 43.8487 55.1365 43.8309 55.0299 43.8309H54.0437V46.1163H55.5362C55.6428 46.1163 55.7206 46.1008 55.7694 46.0697C55.8183 46.0341 55.8627 45.9675 55.9027 45.8698L56.3425 44.7904L56.4158 44.797Z" fill="#333333"/>
<path d="M62.6274 46.143V46.1963H60.995V46.143L61.5413 46.0763L60.915 44.3706H59.3026L58.7495 45.8431C58.7318 45.892 58.7229 45.932 58.7229 45.9631C58.7229 46.0119 58.7362 46.0475 58.7629 46.0697C58.7939 46.0874 58.8473 46.1008 58.9228 46.1097L59.3292 46.143V46.1963H57.91V46.143L58.2831 46.1097C58.3942 46.1008 58.4719 46.0786 58.5163 46.043C58.5652 46.0075 58.6074 45.9409 58.6429 45.8431L60.2754 41.4922H60.3953L62.0744 46.0763L62.6274 46.143ZM60.875 44.264L60.1288 42.2318H60.1021L59.3425 44.264H60.875Z" fill="#333333"/>
<path d="M68.1724 46.143V46.1963H67.4861C67.3795 46.1963 67.2995 46.1807 67.2462 46.1496C67.1929 46.1185 67.1374 46.0586 67.0796 45.9697L66.0602 44.324C65.998 44.2218 65.9447 44.1596 65.9003 44.1374C65.8603 44.1107 65.787 44.0974 65.6804 44.0974H65.1873V46.0897L65.767 46.143V46.1963H64.1279V46.143L64.6743 46.0897V41.7054L64.1279 41.6521V41.5988H65.8137C66.3378 41.5988 66.7376 41.7054 67.013 41.9186C67.2884 42.1274 67.4261 42.4317 67.4261 42.8315C67.4261 43.1424 67.3417 43.3978 67.1729 43.5977C67.0041 43.7976 66.7598 43.9353 66.44 44.0108H66.4467L67.666 45.9164C67.7237 46.0053 67.7793 46.0652 67.8326 46.0963C67.8903 46.1274 67.9725 46.143 68.0791 46.143H68.1724ZM65.1873 41.6788V43.9975H65.7937C66.149 43.9975 66.4111 43.9042 66.5799 43.7176C66.7532 43.5266 66.8398 43.2357 66.8398 42.8448C66.8398 42.4494 66.7532 42.1563 66.5799 41.9653C66.4067 41.7743 66.1446 41.6788 65.7937 41.6788H65.1873Z" fill="#333333"/>
<path d="M75.6074 42.9247L75.5541 42.9314L75.1543 41.9253C75.1143 41.8231 75.0699 41.7565 75.0211 41.7254C74.9766 41.6943 74.9011 41.6788 74.7945 41.6788H73.4419V43.7243H74.4081C74.5147 43.7243 74.5902 43.7065 74.6346 43.671C74.679 43.6355 74.7101 43.5666 74.7279 43.4644L74.8412 42.9247H74.9211V44.6305H74.8412L74.7279 44.0908C74.7101 43.9886 74.679 43.9197 74.6346 43.8842C74.5902 43.8487 74.5147 43.8309 74.4081 43.8309H73.4419V46.0897L74.0949 46.143V46.1963H72.3825V46.143L72.9289 46.0897V41.7054L72.3825 41.6521V41.5988H75.5008L75.6074 42.9247Z" fill="#333333"/>
<path d="M79.5833 41.4922C79.9698 41.4922 80.3229 41.5988 80.6427 41.812C80.967 42.0252 81.2202 42.3162 81.4023 42.6849C81.5889 43.0491 81.6821 43.4533 81.6821 43.8975C81.6821 44.3417 81.5889 44.7482 81.4023 45.1169C81.2202 45.4811 80.967 45.7698 80.6427 45.9831C80.3229 46.1963 79.9698 46.3029 79.5833 46.3029C79.1968 46.3029 78.8415 46.1963 78.5172 45.9831C78.1974 45.7698 77.9442 45.4811 77.7576 45.1169C77.5755 44.7482 77.4844 44.3417 77.4844 43.8975C77.4844 43.4533 77.5755 43.0491 77.7576 42.6849C77.9442 42.3162 78.1974 42.0252 78.5172 41.812C78.8415 41.5988 79.1968 41.4922 79.5833 41.4922ZM78.1241 43.8975C78.1241 44.6393 78.2507 45.2124 78.5039 45.6166C78.7571 46.0164 79.1169 46.2163 79.5833 46.2163C80.0497 46.2163 80.4095 46.0164 80.6627 45.6166C80.9159 45.2124 81.0425 44.6393 81.0425 43.8975C81.0425 43.1557 80.9159 42.5827 80.6627 42.1785C80.4095 41.7743 80.0497 41.5721 79.5833 41.5721C79.1169 41.5721 78.7571 41.7743 78.5039 42.1785C78.2507 42.5827 78.1241 43.1557 78.1241 43.8975Z" fill="#333333"/>
<path d="M87.6356 46.143V46.1963H86.9493C86.8427 46.1963 86.7628 46.1807 86.7095 46.1496C86.6562 46.1185 86.6007 46.0586 86.5429 45.9697L85.5235 44.324C85.4613 44.2218 85.408 44.1596 85.3635 44.1374C85.3236 44.1107 85.2503 44.0974 85.1437 44.0974H84.6506V46.0897L85.2303 46.143V46.1963H83.5912V46.143L84.1376 46.0897V41.7054L83.5912 41.6521V41.5988H85.2769C85.8011 41.5988 86.2009 41.7054 86.4763 41.9186C86.7517 42.1274 86.8894 42.4317 86.8894 42.8315C86.8894 43.1424 86.805 43.3978 86.6362 43.5977C86.4674 43.7976 86.2231 43.9353 85.9033 44.0108H85.9099L87.1293 45.9164C87.187 46.0053 87.2425 46.0652 87.2958 46.0963C87.3536 46.1274 87.4357 46.143 87.5424 46.143H87.6356ZM84.6506 41.6788V43.9975H85.2569C85.6123 43.9975 85.8744 43.9042 86.0432 43.7176C86.2164 43.5266 86.303 43.2357 86.303 42.8448C86.303 42.4494 86.2164 42.1563 86.0432 41.9653C85.8699 41.7743 85.6079 41.6788 85.2569 41.6788H84.6506Z" fill="#333333"/>
<path d="M99.0101 46.143V46.1963H98.0173L96.2116 43.8109L95.8385 44.2373V46.0897L96.4182 46.143V46.1963H94.7791V46.143L95.3254 46.0897V41.7054L94.7791 41.6521V41.5988H96.4182V41.6521L95.8385 41.7054V44.1174L97.6508 42.0252C97.7219 41.9408 97.7574 41.872 97.7574 41.8187C97.7574 41.7743 97.7219 41.7409 97.6508 41.7187C97.5842 41.6965 97.4465 41.6743 97.2377 41.6521V41.5988H98.597V41.6521C98.3393 41.6965 98.1639 41.7387 98.0706 41.7787C97.9817 41.8187 97.8862 41.8964 97.7841 42.0119L96.5647 43.4111L98.4904 45.9297C98.5659 46.0141 98.6347 46.0719 98.6969 46.103C98.7635 46.1296 98.859 46.143 98.9834 46.143H99.0101Z" fill="#333333"/>
<path d="M100.484 41.5988H102.09V41.6521L101.544 41.7054V46.0897L102.09 46.143V46.1963H100.484V46.143L101.031 46.0897V41.7054L100.484 41.6521V41.5988Z" fill="#333333"/>
<path d="M107.149 41.9519C107.42 42.1429 107.631 42.405 107.782 42.7382C107.933 43.0713 108.009 43.4489 108.009 43.8709C108.009 44.2929 107.933 44.6771 107.782 45.0236C107.631 45.3701 107.42 45.641 107.149 45.8365C106.976 45.9608 106.776 46.0519 106.55 46.1097C106.327 46.1674 106.054 46.1963 105.73 46.1963H103.958V46.143L104.504 46.0897V41.7054L103.958 41.6521V41.5988H105.73C106.334 41.5988 106.807 41.7165 107.149 41.9519ZM106.909 45.7232C107.051 45.5411 107.163 45.2834 107.242 44.9503C107.327 44.6127 107.369 44.2418 107.369 43.8376C107.369 43.4422 107.329 43.0935 107.249 42.7915C107.174 42.4894 107.06 42.2495 106.909 42.0719C106.785 41.9253 106.632 41.8231 106.45 41.7654C106.267 41.7076 106.008 41.6788 105.67 41.6788H105.017V46.1163H105.67C106.025 46.1163 106.292 46.0874 106.47 46.0297C106.647 45.9719 106.794 45.8698 106.909 45.7232Z" fill="#333333"/>
<path d="M111.554 46.3029C111.83 46.3029 112.076 46.2451 112.294 46.1296C112.516 46.0141 112.689 45.8565 112.813 45.6566C112.938 45.4522 113 45.2212 113 44.9636C113 44.7326 112.949 44.5394 112.847 44.3839C112.749 44.224 112.618 44.0908 112.454 43.9842C112.294 43.8775 112.08 43.7643 111.814 43.6443C111.516 43.5066 111.285 43.3889 111.121 43.2912C110.961 43.1935 110.835 43.078 110.741 42.9447C110.652 42.8115 110.608 42.6471 110.608 42.4517C110.608 42.1807 110.69 41.9675 110.855 41.812C111.019 41.6521 111.239 41.5721 111.514 41.5721C111.972 41.5721 112.311 41.8009 112.534 42.2584C112.645 42.485 112.736 42.7471 112.807 43.0447L112.873 43.0247L112.807 41.5721H112.72L112.56 41.892C112.378 41.7498 112.207 41.6477 112.047 41.5855C111.892 41.5233 111.723 41.4922 111.541 41.4922C111.279 41.4922 111.043 41.5477 110.835 41.6588C110.63 41.7654 110.468 41.9164 110.348 42.1118C110.233 42.3029 110.175 42.5205 110.175 42.7648C110.175 43.0047 110.228 43.209 110.335 43.3778C110.446 43.5422 110.584 43.6777 110.748 43.7843C110.912 43.8864 111.117 43.9908 111.361 44.0974C111.659 44.2262 111.889 44.3395 112.054 44.4372C112.218 44.535 112.347 44.6527 112.44 44.7904C112.538 44.9281 112.587 45.0969 112.587 45.2968C112.587 45.5811 112.496 45.8076 112.314 45.9764C112.136 46.1407 111.887 46.2229 111.567 46.2229C111.194 46.2229 110.894 46.0963 110.668 45.8431C110.557 45.7188 110.466 45.5722 110.395 45.4034C110.328 45.2346 110.261 44.9992 110.195 44.6971L110.135 44.7104L110.222 46.3029H110.308L110.448 45.9364C110.586 46.0519 110.752 46.1407 110.948 46.2029C111.143 46.2696 111.345 46.3029 111.554 46.3029Z" fill="#333333"/>
<g clip-path="url(#clip0_280_846)">
<path d="M67.3739 32.0496C68.8427 32.0496 70.1575 31.7416 71.3184 31.1257C72.5029 30.5097 73.4268 29.6687 74.0902 28.6026C74.7535 27.5128 75.0852 26.2809 75.0852 24.9069C75.0852 23.6749 74.8127 22.6444 74.2679 21.8152C73.7467 20.9624 73.0478 20.2516 72.1712 19.6831C71.3184 19.1145 70.1812 18.5104 68.7598 17.8707C67.1725 17.1363 65.9406 16.5085 65.064 15.9873C64.2112 15.4661 63.536 14.8502 63.0385 14.1394C62.5647 13.4287 62.3277 12.5522 62.3277 11.5098C62.3277 10.0646 62.766 8.92748 63.6426 8.09831C64.5191 7.24544 65.6918 6.81901 67.1606 6.81901C69.6008 6.81901 71.4131 8.03908 72.5977 10.4792C73.1899 11.6874 73.6756 13.0852 74.0546 14.6725L74.41 14.5659L74.0546 6.81901H73.5927L72.7398 8.52474C71.7685 7.76664 70.8564 7.22175 70.0035 6.89008C69.1744 6.55841 68.2741 6.39258 67.3028 6.39258C65.905 6.39258 64.6494 6.68871 63.536 7.28098C62.4462 7.84956 61.5815 8.65504 60.9418 9.69743C60.3259 10.7161 60.0179 11.877 60.0179 13.18C60.0179 14.4593 60.3022 15.549 60.8708 16.4493C61.463 17.3258 62.1974 18.0484 63.074 18.617C63.9506 19.1619 65.0403 19.7186 66.3433 20.2872C67.9306 20.9742 69.1625 21.5783 70.0391 22.0995C70.9156 22.6207 71.6027 23.2485 72.1002 23.9829C72.6213 24.7173 72.8819 25.6176 72.8819 26.6837C72.8819 28.1999 72.3963 29.4081 71.425 30.3083C70.4773 31.1849 69.1507 31.6232 67.4449 31.6232C65.4549 31.6232 63.8558 30.948 62.6476 29.5976C62.0553 28.9343 61.5696 28.1525 61.1906 27.2522C60.8352 26.352 60.4799 25.0964 60.1245 23.4854L59.8047 23.5565L60.2667 32.0496H60.7286L61.4749 30.0951C62.2093 30.7111 63.0977 31.1849 64.1401 31.5166C65.1825 31.8719 66.2604 32.0496 67.3739 32.0496Z" fill="#333333"/>
<path d="M112.497 31.1967V31.481H107.202L97.5717 18.7591L95.5817 21.0334V30.9124L98.6733 31.1967V31.481H89.9315V31.1967L92.8454 30.9124V7.52973L89.9315 7.24544V6.96115H98.6733V7.24544L95.5817 7.52973V20.3938L105.247 9.23546C105.627 8.78534 105.816 8.41813 105.816 8.13384C105.816 7.89694 105.627 7.71926 105.247 7.6008C104.892 7.48235 104.158 7.3639 103.044 7.24544V6.96115H110.294V7.24544C108.92 7.48235 107.984 7.70741 107.486 7.92063C107.012 8.13384 106.503 8.54843 105.958 9.16439L99.4551 16.627L109.725 30.0596C110.128 30.5097 110.495 30.8177 110.827 30.9835C111.182 31.1257 111.691 31.1967 112.355 31.1967H112.497Z" fill="#333333"/>
</g>
<g clip-path="url(#clip1_280_846)">
<path d="M17.5005 18.5459C19.5616 18.8302 21.137 19.5054 22.2268 20.5715C23.3166 21.6375 23.8614 23.0353 23.8614 24.7647C23.8614 26.66 23.1981 28.2591 21.8714 29.5621C20.5684 30.8414 18.5547 31.481 15.8303 31.481H5.34717V31.1967L8.26112 30.9124V7.52973L5.34717 7.24544V6.96115H14.1956C16.9911 6.96115 19.1233 7.45866 20.5921 8.45367C22.0609 9.44868 22.7954 10.8938 22.7954 12.7891C22.7954 14.3053 22.3334 15.5609 21.4095 16.5559C20.4855 17.5509 19.1825 18.1668 17.5005 18.4038V18.5459ZM10.9974 7.38759V18.2971H15.1196C16.7069 18.2971 17.844 17.8352 18.531 16.9112C19.2418 15.9873 19.5971 14.6132 19.5971 12.7891C19.5971 9.18808 17.7611 7.38759 14.089 7.38759H10.9974ZM14.9774 31.0546C18.6495 31.0546 20.4855 28.9935 20.4855 24.8713C20.4855 22.7155 20.0236 21.1519 19.0996 20.1806C18.1757 19.2092 16.8016 18.7236 14.9774 18.7236H10.9974V31.0546H14.9774Z" fill="#333333"/>
<path d="M60.0349 31.1967V31.481H51.3286V31.1967L54.2425 30.8414L50.9021 21.7441H42.3024L39.3529 29.5976C39.2582 29.8582 39.2108 30.0714 39.2108 30.2373C39.2108 30.4979 39.2819 30.6874 39.424 30.8058C39.5898 30.9006 39.8741 30.9717 40.2769 31.019L42.4446 31.1967V31.481H34.8754V31.1967L36.8654 31.019C37.4577 30.9717 37.8723 30.8532 38.1092 30.6637C38.3698 30.4742 38.5948 30.1188 38.7844 29.5976L47.4907 6.39258H48.1303L57.0854 30.8414L60.0349 31.1967ZM50.6889 21.1756L46.7089 10.3371H46.5667L42.5156 21.1756H50.6889Z" fill="#333333"/>
</g>
<defs>
<clipPath id="clip0_280_846">
<rect width="49" height="34" fill="white" transform="translate(66 2)"/>
</clipPath>
<clipPath id="clip1_280_846">
<rect width="48" height="38" fill="white"/>
</clipPath>
</defs>
</svg>
