<svg width="340" height="87" viewBox="0 0 340 87" fill="none" xmlns="http://www.w3.org/2000/svg">
<path d="M0 1.875H33.375C37.7917 1.875 41.8333 2.375 45.5 3.375C49.2083 4.33333 52.375 5.70833 55 7.5C57.6667 9.29167 59.7292 11.4375 61.1875 13.9375C62.6458 16.4375 63.375 19.1875 63.375 22.1875C63.375 24.4792 63.1458 26.5208 62.6875 28.3125C62.2292 30.1042 61.4167 31.7708 60.25 33.3125C59.0833 34.8125 57.5208 36.25 55.5625 37.625C53.6458 38.9583 51.2083 40.3333 48.25 41.75V42C51.2083 42.4583 53.875 43.25 56.25 44.375C58.625 45.5 60.6458 46.9375 62.3125 48.6875C64.0208 50.3958 65.3333 52.4167 66.25 54.75C67.1667 57.0417 67.625 59.5625 67.625 62.3125C67.625 65.4375 66.9375 68.375 65.5625 71.125C64.2292 73.8333 62.2917 76.2083 59.75 78.25C57.25 80.25 54.2083 81.8333 50.625 83C47.0833 84.1667 43.1042 84.75 38.6875 84.75H0V1.875ZM13.9375 39.1875H31.6875C34.4792 39.1875 36.9583 38.7917 39.125 38C41.2917 37.2083 43.125 36.125 44.625 34.75C46.125 33.3333 47.25 31.6667 48 29.75C48.7917 27.7917 49.1875 25.6875 49.1875 23.4375C49.1875 21.0208 48.7292 18.8333 47.8125 16.875C46.8958 14.875 45.4583 13.1667 43.5 11.75C41.5833 10.3333 39.125 9.25 36.125 8.5C33.1667 7.75 29.6042 7.375 25.4375 7.375H13.9375V39.1875ZM13.9375 78.6875H29C33.0417 78.6875 36.5417 78.3125 39.5 77.5625C42.5 76.7708 44.9583 75.6875 46.875 74.3125C48.8333 72.8958 50.2708 71.2083 51.1875 69.25C52.1458 67.2917 52.625 65.1458 52.625 62.8125C52.625 60.1875 52.2083 57.75 51.375 55.5C50.5417 53.25 49.1667 51.3125 47.25 49.6875C45.375 48.0208 42.8958 46.7083 39.8125 45.75C36.7708 44.7917 33.0208 44.3125 28.5625 44.3125H13.9375V78.6875Z" fill="#2F2F2F"/>
<path d="M123.462 0L162.462 84.75H148.275L118.025 18.9375L87.025 84.75H80.025L119.962 0H123.462Z" fill="#2F2F2F"/>
<path d="M207.55 81.4375C209.592 81.4375 211.613 81.1667 213.613 80.625C215.613 80.0417 217.404 79.2083 218.988 78.125C220.571 77 221.842 75.6458 222.8 74.0625C223.758 72.4375 224.238 70.5625 224.238 68.4375C224.238 65.8958 223.571 63.6458 222.238 61.6875C220.946 59.6875 219.238 57.875 217.113 56.25C214.988 54.5833 212.55 53.0208 209.8 51.5625C207.092 50.1042 204.321 48.6458 201.488 47.1875C198.654 45.7292 195.863 44.2083 193.113 42.625C190.404 41 187.988 39.2083 185.863 37.25C183.738 35.25 182.008 33.0417 180.675 30.625C179.383 28.1667 178.738 25.3542 178.738 22.1875C178.738 19.0208 179.321 16.0833 180.488 13.375C181.696 10.6667 183.446 8.33333 185.738 6.375C188.029 4.375 190.842 2.8125 194.175 1.6875C197.55 0.5625 201.404 0 205.738 0C209.654 0 213.154 0.416667 216.238 1.25C219.321 2.08333 222.029 3.3125 224.363 4.9375C226.696 6.5625 228.675 8.5625 230.3 10.9375C231.925 13.3125 233.238 16.0625 234.238 19.1875L227.113 22.4375C226.279 19.8958 225.217 17.5833 223.925 15.5C222.633 13.375 221.092 11.5625 219.3 10.0625C217.508 8.5625 215.425 7.41667 213.05 6.625C210.717 5.79167 208.071 5.375 205.113 5.375C202.488 5.375 200.196 5.75 198.238 6.5C196.279 7.20833 194.633 8.16667 193.3 9.375C192.008 10.5417 191.029 11.875 190.363 13.375C189.738 14.8333 189.425 16.3333 189.425 17.875C189.425 20.0417 190.092 22.0417 191.425 23.875C192.758 25.6667 194.529 27.375 196.738 29C198.946 30.5833 201.446 32.125 204.238 33.625C207.071 35.125 209.946 36.6458 212.863 38.1875C215.779 39.7292 218.633 41.3333 221.425 43C224.258 44.6667 226.779 46.5 228.988 48.5C231.196 50.4583 232.967 52.625 234.3 55C235.633 57.3333 236.3 59.9583 236.3 62.875C236.3 66.1667 235.675 69.2708 234.425 72.1875C233.175 75.0625 231.3 77.5833 228.8 79.75C226.3 81.875 223.196 83.5625 219.488 84.8125C215.779 86.0625 211.467 86.6875 206.55 86.6875C202.55 86.6875 198.988 86.25 195.863 85.375C192.738 84.5 189.967 83.2292 187.55 81.5625C185.175 79.8958 183.133 77.875 181.425 75.5C179.717 73.0833 178.321 70.3333 177.238 67.25L184.675 64.1875C185.55 66.8958 186.717 69.3125 188.175 71.4375C189.675 73.5625 191.404 75.375 193.363 76.875C195.321 78.3333 197.488 79.4583 199.863 80.25C202.279 81.0417 204.842 81.4375 207.55 81.4375Z" fill="#2F2F2F"/>
<path d="M262.075 1.875H276.013V38.625L319.638 1.875H328.7L287.325 36.75L339.825 84.75H322.075L276.013 42.6875V84.75H262.075V1.875Z" fill="#2F2F2F"/>
</svg>
